<?xml version="1.0" encoding="UTF-8"?>
<svg id="_レイヤー_1" data-name="レイヤー_1" xmlns="http://www.w3.org/2000/svg" version="1.1" viewBox="0 0 295.6 80.56">
  <!-- Generator: Adobe Illustrator 29.3.1, SVG Export Plug-In . SVG Version: 2.1.0 Build 151)  -->
  <defs>
    <style>
      .st0, .st1 {
        fill: #6d5498;
      }

      .st2 {
        fill: #444447;
        font-family: SourceHanSans-Normal-83pv-RKSJ-H, 'Source Han Sans';
        font-size: 12px;
      }

      .st1 {
        fill-rule: evenodd;
      }
    </style>
  </defs>
  <g>
    <g>
      <path class="st1" d="M14.12,22.14c.08-.02.15-.04.22-.06,0,.34.07.7.23,1.05.48,1.05,1.51,1.61,2.31,1.25.79-.36,1.05-1.5.58-2.56,0,0,0,0-.01-.01,0-.17-.04-.33-.15-.48-.69-.96-2.06-1.23-3.67-.72-3.77,1.21-9.38,6.96-9.38,17.85s5.61,16.59,9.38,17.8c.75.24,1.44.3,2.05.21.31,0,.62-.11.91-.3.28-.16.53-.37.72-.63.09-.12.13-.26.14-.4,0-.01.01-.02.01-.03.48-1.05.21-2.19-.58-2.55-.8-.36-1.83.2-2.31,1.25-.15.32-.22.66-.23.98-.08-.02-.15-.04-.23-.07-3.32-1.06-7.59-6.57-7.59-16.59s4.27-14.92,7.59-15.99Z"/>
      <path class="st1" d="M21.01,61.29c-.02-.08-.04-.15-.06-.23.34,0,.7-.07,1.05-.23,1.05-.48,1.61-1.51,1.25-2.31-.36-.79-1.5-1.05-2.55-.58,0,0-.01,0-.02,0-.17,0-.33.04-.48.15-.96.69-1.23,2.06-.72,3.67,1.21,3.77,6.96,9.38,17.85,9.38s16.59-5.61,17.8-9.38c.24-.75.3-1.45.21-2.05,0-.31-.11-.62-.3-.91-.16-.28-.37-.53-.63-.72-.12-.09-.26-.13-.39-.14,0,0-.02,0-.02-.01-1.05-.48-2.19-.21-2.55.58-.36.8.2,1.83,1.25,2.31.32.15.66.21.98.23-.02.08-.04.15-.06.22-1.06,3.32-6.56,7.59-16.59,7.59s-14.93-4.27-16-7.59Z"/>
      <path class="st1" d="M59.85,54.87c-.08.02-.15.04-.22.06,0-.34-.07-.7-.23-1.05-.48-1.05-1.51-1.61-2.31-1.25-.79.36-1.05,1.51-.58,2.56,0,0,0,0,0,.01,0,.16.05.33.15.48.69.96,2.06,1.24,3.67.72,3.77-1.21,9.38-6.96,9.38-17.85s-5.61-16.59-9.38-17.8c-.75-.24-1.44-.3-2.05-.21-.31,0-.62.11-.91.3-.28.16-.53.37-.72.63-.09.12-.13.25-.14.39,0,0-.01.02-.01.02-.48,1.05-.21,2.19.58,2.56.8.36,1.83-.2,2.31-1.25.14-.33.21-.66.23-.98.08.02.15.04.22.06,3.32,1.07,7.59,6.56,7.59,16.59s-4.27,14.93-7.59,15.99Z"/>
      <path class="st1" d="M53.49,15.55c.02.08.04.15.06.22-.34,0-.7.07-1.05.23-1.05.48-1.61,1.51-1.25,2.3.36.79,1.5,1.05,2.55.58,0,0,0,0,.02-.01.16,0,.33-.04.48-.14.97-.69,1.24-2.06.72-3.67-1.21-3.77-6.96-9.39-17.85-9.39s-16.59,5.61-17.8,9.39c-.24.75-.3,1.44-.21,2.04,0,.31.11.62.3.91.16.28.36.53.63.72.12.09.25.13.39.14,0,0,.02,0,.02.02,1.05.47,2.19.21,2.56-.58.36-.79-.2-1.82-1.25-2.3-.32-.15-.66-.22-.98-.23.02-.08.04-.15.06-.23,1.06-3.32,6.56-7.59,16.59-7.59s14.93,4.27,15.99,7.59Z"/>
    </g>
    <g>
      <path class="st0" d="M24.21,31.66s9.01-8.94,9.85-9.77c.38.38,2.85,2.83,5.49,5.44-1.22,1.2-2.25,2.24-2.55,2.53-.62-.62-2.55-2.53-2.55-2.53l-9.53,9.46.93.94s7.77-7.71,8.6-8.54c.62.62,2.55,2.53,2.55,2.53,0,0,1.67-1.65,3.48-3.45,3.03,3,5.98,5.93,5.98,5.93,0,0,1.22-1.21,1.72-1.7.78.78,5.22,5.18,5.22,5.18l.93-.94-6.15-6.1s-1.22,1.21-1.72,1.7c-.36-.35-2.58-2.56-5.04-5,1.65-1.64,3.21-3.19,3.57-3.55.75.74,10.27,10.18,12.95,12.85-.05-.71-.12-1.41-.24-2.1l-12.71-12.61-.46.46s-2.06,2.05-4.05,4.01c-3.17-3.15-6.42-6.37-6.42-6.37l-.46.46s-8.55,8.48-9.39,9.31c-.4-.4-1.37-1.36-1.37-1.36l-6.62,6.57c-.1.67-.17,1.35-.19,2.05,1.7-1.68,6.15-6.1,6.81-6.76.41.4,1.37,1.36,1.37,1.36Z"/>
      <path class="st0" d="M48.32,54.51c-.22-.03-.43-.06-.65-.09-.05,0-.1-.01-.15-.02-.19-.03-.38-.06-.58-.09-.08,0-.16-.02-.24-.03-.17-.03-.34-.05-.51-.08-.1-.02-.21-.03-.32-.05-.14-.03-.29-.05-.44-.08-.13-.02-.26-.05-.39-.07-.13-.02-.26-.04-.38-.07-.15-.03-.3-.05-.45-.09-.12-.02-.23-.04-.34-.07-.17-.03-.34-.07-.5-.11-.1-.02-.2-.04-.3-.06-.19-.04-.38-.08-.57-.13-.08-.02-.16-.04-.24-.05-.22-.06-.45-.11-.67-.17-.04,0-.09-.02-.13-.03-.27-.07-.53-.13-.79-.21l-.32-.09c-.19-.05-.41-.12-.52-.15-1.17-.33-2.22-.66-3.14-.98-.16-.05-.32-.11-.47-.17h0c-3.06-1.08-4.71-1.98-5.25-2.31-.13-.08-.2-.12-.21-.13l-.37-.25-.37.25s-.73.49-2.27,1.08c-1.06.41-2.25.78-3.56,1.11-.89.22-1.88.37-2.95.47.37.42.75.82,1.15,1.21.38-.05.76-.1,1.11-.17.06,0,.11-.02.16-.03.29-.06.57-.12.85-.18,1.37-.34,2.62-.73,3.73-1.16,1.08-.42,1.76-.77,2.14-.99.05.03.12.07.18.1.03.02.07.04.11.06.03.02.07.04.11.06.05.03.11.06.17.09.03.01.05.03.08.04.07.03.14.08.22.12.01,0,.03.01.04.02,1.17.6,3.19,1.5,6.31,2.48-.82.25-1.81.52-2.99.8-.02,0-.04,0-.05.01-.56.13-1.17.27-1.82.4-.08.01-.16.03-.25.05-.24.04-.49.09-.74.14-.1.01-.19.03-.29.05-.33.06-.68.12-1.04.18-.88.15-1.84.26-2.83.34-.39.03-.78.06-1.18.08-.29.01-.59.02-.89.03.68.45,1.39.86,2.13,1.22.02,0,.04,0,.05,0,1.03-.08,2.02-.2,2.95-.36.3-.05.58-.1.87-.14.08-.02.16-.03.25-.05.2-.04.39-.07.58-.11.09-.02.18-.04.27-.06.18-.03.35-.07.53-.1.09-.02.18-.04.26-.05.17-.03.33-.07.5-.1.09-.02.17-.04.25-.06.16-.04.31-.07.46-.11.09-.02.17-.04.25-.06.14-.04.29-.07.42-.1.09-.02.17-.04.26-.07.13-.03.25-.06.37-.09.09-.02.18-.05.27-.07.1-.03.21-.06.31-.08.1-.03.2-.05.3-.08.08-.02.17-.05.24-.07.11-.03.22-.06.33-.1.05-.02.11-.03.16-.05.13-.04.25-.07.37-.11.03,0,.05-.02.08-.02.75-.23,1.36-.44,1.82-.61.04,0,.27.08.4.11l.09.02c.42.12.85.22,1.28.33.07.02.14.04.21.05.41.1.82.19,1.23.28.07.02.14.03.21.05.88.19,1.75.35,2.6.49.01,0,.03,0,.05,0,.78.13,1.52.23,2.25.33.57-.36,1.11-.74,1.64-1.14-.46-.05-.92-.11-1.4-.17-.01,0-.03,0-.04,0Z"/>
      <path class="st0" d="M20.07,48.44c.32.03.64.05.97.07.04,0,.09,0,.13,0,.66.03,1.34.03,2.05,0,.06,0,.12,0,.18,0,.34-.02.68-.04,1.02-.08.06,0,.13-.01.19-.02.36-.04.72-.08,1.07-.14,2.08-.34,4.16-.81,6.19-1.41,2.39-.71,4.06-1.39,4.78-1.71.53.46,1.67,1.36,3.44,2.32l1.77.88.93.38c1.91.77,3.94,1.33,6.03,1.67.04,0,.07.01.11.02.32.05.64.1.95.15.2.03.4.06.6.09.11.01.23.03.34.05.96.13,1.84.23,2.65.31.32-.41.64-.83.93-1.27-.14,0-.27-.02-.42-.03-.02,0-.05,0-.08,0-.09-.01-.18-.02-.27-.02-.07,0-.13,0-.2-.02-.08,0-.16-.02-.24-.02-.08,0-.17-.01-.25-.02-.08,0-.16-.02-.23-.02-.1-.01-.19-.02-.29-.04-.08,0-.16-.02-.24-.02-.11-.01-.21-.03-.32-.04-.08-.01-.16-.02-.24-.03-.12-.02-.23-.03-.35-.05-.08,0-.16-.02-.24-.03-.13-.01-.25-.03-.39-.05-.08-.01-.16-.03-.24-.04-.14-.02-.3-.05-.45-.07-.07-.01-.14-.02-.22-.04-.23-.03-.46-.07-.7-.11,0,0-.02,0-.03,0-.35-.06-.7-.13-1.05-.2-.92-.2-1.82-.45-2.71-.72.62-.08,1.37-.18,2.17-.28l8.64-1.1c.21-.46.41-.94.6-1.42-1.28.16-3.22.41-5.27.67l-8.89,1.13c-3.45-1.52-5.24-3.26-5.25-3.27l-.33-.33-.42.21s-1.89.9-4.99,1.81c-1.97.58-4,1.04-6.03,1.37-.22.04-.44.07-.66.09-.07,0-.14.02-.21.03-.15.02-.29.03-.44.05-.09,0-.18,0-.26.02-.13,0-.25.02-.38.03-.1,0-.2,0-.3.01-.11,0-.22.01-.33.01-.11,0-.22,0-.33,0-.09,0-.19,0-.28,0-.13,0-.25,0-.38,0-.07,0-.14,0-.21,0-.15,0-.29,0-.43-.02-.05,0-.09,0-.14,0-.17,0-.34-.02-.5-.03-.01,0-.03,0-.04,0-.94-.07-1.83-.19-2.63-.34.23.5.48.99.75,1.47.42.06.84.12,1.3.16.03,0,.06,0,.09,0Z"/>
      <path class="st0" d="M32.84,39.35c.99,1.02,3.74,3.38,8.4,3.69,4.49.3,7.55-1.17,8.77-1.88.55.72,1.73,1.94,3.92,2.8h0c.97.38,1.99.66,2.94.86.14-.42.28-.84.39-1.27-.92-.2-1.92-.46-2.85-.83-2.71-1.06-3.62-2.76-3.62-2.77l-.36-.7-.63.47s-3.21,2.35-8.47,2c-5.21-.34-7.82-3.62-7.84-3.64l-.4-.52-.52.39s-2.94,2.16-8.84,3.72c-2.67.71-5.21.94-7.19.98.1.44.21.89.34,1.32,2.01-.06,4.53-.31,7.19-1.01,4.84-1.28,7.7-2.91,8.78-3.6Z"/>
    </g>
  </g>
  <g>
    <g>
      <path class="st0" d="M95.78,41.65c.47,0,.79-.11.95-.33s.25-.51.25-.88v-21.25h-8.42c-.63,0-1.08.09-1.35.28-.27.19-.4.53-.4,1.03h-.6v-5.91h.6c0,.85.58,1.27,1.75,1.27h21.02c1.17,0,1.75-.42,1.75-1.27h.6v5.91h-.6c0-.5-.13-.84-.4-1.03-.27-.18-.72-.28-1.36-.28h-8.42v21.25c0,.37.08.66.25.88.17.22.48.33.95.33v.6h-6.59v-.6Z"/>
      <path class="st0" d="M138.53,16.49c1.83.58,3.42,1.45,4.77,2.6,1.35,1.15,2.4,2.56,3.15,4.23.75,1.67,1.13,3.58,1.13,5.75s-.37,4.08-1.13,5.75c-.75,1.67-1.8,3.07-3.15,4.2-1.35,1.13-2.94,1.98-4.77,2.53-1.83.55-3.83.82-6,.82s-4.17-.27-6-.82c-1.83-.55-3.42-1.39-4.77-2.53-1.35-1.13-2.4-2.53-3.15-4.2-.75-1.67-1.12-3.58-1.12-5.75s.38-4.08,1.12-5.75c.75-1.67,1.8-3.08,3.15-4.23,1.35-1.15,2.94-2.02,4.77-2.6,1.83-.58,3.83-.87,6-.87s4.16.29,6,.87ZM124.68,21.69c-1.85,1.78-2.77,4.24-2.77,7.37s.92,5.59,2.77,7.37c1.84,1.78,4.46,2.67,7.85,2.67s6-.89,7.85-2.67c1.85-1.78,2.77-4.24,2.77-7.37s-.92-5.58-2.77-7.37c-1.84-1.78-4.46-2.67-7.85-2.67s-6.01.89-7.85,2.67Z"/>
      <path class="st0" d="M161.94,16.52c-.47,0-.79.11-.95.33-.17.22-.25.51-.25.88v10.21l13.63-10.21c.23-.17.41-.3.53-.4.12-.1.18-.22.18-.35,0-.1-.06-.2-.18-.3-.12-.1-.31-.15-.58-.15v-.6h7.52v.6c-.5,0-.88.08-1.15.25-.27.16-.72.48-1.35.95l-9.62,7.21,12.08,15.52c.3.43.56.74.78.93.22.18.51.27.88.27v.6h-6.91v-.6c.43,0,.65-.13.65-.4,0-.3-.22-.72-.65-1.25l-9.87-12.78-5.91,4.41v8.82c0,.37.08.66.25.88s.48.33.95.33v.6h-6.59v-.6c.47,0,.79-.11.95-.33.17-.21.25-.51.25-.87v-22.72c0-.37-.08-.66-.25-.88-.17-.21-.48-.33-.95-.33v-.6h6.59v.6Z"/>
      <path class="st0" d="M195.35,16.52c-.47,0-.78.11-.95.33-.17.22-.25.51-.25.88v10.21l13.63-10.21c.23-.17.41-.3.53-.4.12-.1.17-.22.17-.35,0-.1-.06-.2-.17-.3-.12-.1-.31-.15-.58-.15v-.6h7.52v.6c-.5,0-.88.08-1.15.25-.27.16-.72.48-1.35.95l-9.62,7.21,12.08,15.52c.3.43.56.74.78.93.21.18.51.27.88.27v.6h-6.92v-.6c.43,0,.65-.13.65-.4,0-.3-.22-.72-.65-1.25l-9.87-12.78-5.91,4.41v8.82c0,.37.09.66.25.88.17.22.48.33.95.33v.6h-6.59v-.6c.47,0,.78-.11.95-.33.17-.21.25-.51.25-.87v-22.72c0-.37-.09-.66-.25-.88-.17-.21-.48-.33-.95-.33v-.6h6.59v.6Z"/>
      <path class="st0" d="M223.31,16.79c-.17-.22-.48-.33-.95-.33v-.6h20.97c.87,0,1.42-.07,1.65-.22.23-.15.35-.4.35-.75h.6v5.71h-.6c0-.43-.13-.78-.4-1.03-.27-.25-.79-.38-1.55-.38h-15.63v7.89h10.17c.6,0,1.09-.1,1.48-.3.38-.2.57-.57.57-1.1h.6v6.09h-.6c0-.5-.15-.85-.45-1.05-.3-.2-.8-.3-1.5-.3h-10.27v8.5h16.74c.7,0,1.22-.13,1.55-.37.33-.25.5-.69.5-1.33h.6v6.01h-.6c0-.65-.58-.97-1.75-.97h-22.43v-.6c.47,0,.79-.11.95-.33.17-.22.25-.51.25-.88v-22.78c0-.37-.08-.66-.25-.88Z"/>
      <path class="st0" d="M279.84,35.67v-17.94c0-.37-.08-.66-.25-.88-.17-.22-.48-.33-.95-.33v-.6h5.98v.6c-.47,0-.79.11-.95.33-.17.22-.25.51-.25.88v22.72c0,.37.08.66.25.87.17.22.48.33.95.33v.6h-6.42v-.6c.67,0,1-.13,1-.4,0-.23-.07-.42-.2-.57-.13-.15-.23-.27-.3-.38l-17.85-20.27v20.42c0,.37.08.66.25.87.17.22.48.33.96.33v.6h-5.99v-.6c.47,0,.79-.11.95-.33.17-.21.25-.51.25-.87v-22.72c0-.37-.08-.66-.25-.88-.17-.21-.48-.33-.95-.33v-.6h8.47v.6c-.37,0-.62.04-.75.13-.13.08-.2.22-.2.42,0,.1.04.21.12.33.08.12.18.23.28.33l15.73,17.94h.12Z"/>
    </g>
    <text class="st2" transform="translate(83.4 62.31)"><tspan x="0" y="0">地域の“特別な権利”を集めたマーケット </tspan></text>
  </g>
</svg>